<?xml version="1.0" encoding="UTF-8" standalone="no"?><!DOCTYPE svg PUBLIC "-//W3C//DTD SVG 1.1//EN" "http://www.w3.org/Graphics/SVG/1.1/DTD/svg11.dtd"><svg width="100%" height="100%" viewBox="0 0 400 400" version="1.1" xmlns="http://www.w3.org/2000/svg" xmlns:xlink="http://www.w3.org/1999/xlink" xml:space="preserve" xmlns:serif="http://www.serif.com/" style="fill-rule:evenodd;clip-rule:evenodd;stroke-linejoin:round;stroke-miterlimit:2;"><rect x="-1" y="-1" width="402" height="402" style="fill:transparent;"/><g><g><g id="Group_9896"><g id="Group_9895"><path id="Path_10052" d="M83.779,138.841c0.293,1.41 0.83,3.09 2.239,3.399c0.96,-1.621 1.279,-3.545 0.889,-5.388c-0.721,-8.19 -1.447,-16.375 -2.168,-24.56c-0.618,-6.987 -0.992,-14.771 3.518,-20.159c2.2,-2.423 4.976,-4.244 8.071,-5.301c1.854,-0.721 3.794,-1.296 5.67,-1.849l22.43,-6.564c0.618,-0.238 1.284,-0.32 1.94,-0.233c1.507,0.347 2.027,2.168 2.282,3.702l11.063,67.068c0.255,1.55 1.182,3.561 2.711,3.149c1.176,-0.314 1.409,-1.854 1.414,-3.073c0.071,-20.761 -0.693,-41.505 -2.303,-62.227c-0.195,-1.041 -0.038,-2.12 0.444,-3.063c1.057,-1.572 3.415,-1.317 5.247,-0.824c13.443,4.071 25.991,10.651 36.984,19.395c10.841,7.903 23.953,14.093 29.58,27.102c5.03,11.66 3.285,26.116 3.957,38.551c0.813,15.394 1.057,30.848 1.404,46.263c0.623,28.019 0.818,56.037 0.585,84.067c-0,2.043 1.648,3.734 3.686,3.794c4.645,0.114 9.269,0.298 13.86,0.542c2.06,0.103 3.849,-1.496 3.973,-3.556l0,-0.049c0.082,-1.87 0.163,-3.74 0.223,-5.621c1.046,-30.235 0.72,-60.508 -0.147,-90.744c-0.851,-29.482 -3.35,-58.747 -3.35,-88.229c0.098,-3.323 -0.504,-6.624 -1.767,-9.697c-1.875,-3.139 -4.477,-5.779 -7.588,-7.703c-26.653,-19.243 -55.994,-34.458 -87.08,-45.147c-4.424,-1.848 -9.194,-2.716 -13.985,-2.537c-4.109,0.689 -8.066,2.109 -11.671,4.201l-41.558,20.891c-2.114,0.498 -3.442,2.645 -2.944,4.759c0.049,0.217 0.119,0.433 0.206,0.639l12.185,59.002Z" style="fill:#31a89a;fill-rule:nonzero;"/></g></g></g><g><g id="Group_9900"><g id="Group_9899"><g id="Path_10132"><path d="M210.451,328.244c60.677,-0.331 121.137,7.209 179.873,22.43c-115.174,-47.435 -244.561,-47.435 -359.736,-0c58.731,-15.221 119.197,-22.761 179.868,-22.43" style="fill:#31a89a;fill-rule:nonzero;"/></g><g id="Path_10133"><path d="M252.302,174.698l54.747,-16.852l0.293,-0.076c5.111,-1.084 10.938,-2.488 14.402,2.509c4.233,6.868 5.215,15.275 2.672,22.934l-25.476,100.214l-5.908,23.211c-0.038,0.157 -0.06,0.32 -0.06,0.482c0,0.895 0.613,1.681 1.48,1.903l0.152,0.032c1.604,0.277 3.203,0.564 4.797,0.851c0.932,0.152 1.848,-0.385 2.168,-1.273c14.971,-42.194 29.542,-102.112 39.759,-145.692c0.152,-0.689 0.77,-1.182 1.475,-1.182c0.558,0 1.067,0.309 1.333,0.797l18.169,33.331c0.174,0.325 0.228,0.699 0.158,1.056c-7.188,34.507 -26.371,82.148 -40.112,115.527c-0.092,0.233 -0.141,0.483 -0.141,0.732c0,0.797 0.488,1.512 1.225,1.81c0.092,0.038 0.195,0.071 0.293,0.093c2.271,0.558 4.531,1.127 6.776,1.712c0.926,0.25 1.908,-0.211 2.303,-1.084c17.194,-39.613 32.257,-80.114 45.131,-121.332c1.485,-3.821 2.168,-7.903 2.006,-12.001c-0.445,-3.306 -1.654,-6.461 -3.54,-9.214c-1.886,-2.754 -20.598,-29.412 -35.081,-33.607c-13.009,-3.757 -78.538,23.112 -91.46,28.5c-1.306,0.542 -2.152,1.838 -2.13,3.253l-0,0.076c0.021,1.902 1.593,3.463 3.496,3.463c0.352,0 0.71,-0.054 1.046,-0.162" style="fill:#0c1073;fill-rule:nonzero;"/></g><g id="Path_10134"><path d="M78.885,306.974c-17.796,-46.362 -39.066,-92.766 -68.065,-133.274c-0.743,-1.04 -1.144,-2.287 -1.144,-3.561c0,-2.748 1.848,-5.176 4.494,-5.908c27.026,-7.529 57.343,-15.72 85.345,-9.264c25.975,5.963 46.752,24.035 68.016,39.028c1.589,1.111 2.564,2.911 2.629,4.846l3.285,103.721c0.011,0.417 -0.309,0.775 -0.726,0.802c-1.252,0.092 -2.505,0.195 -3.751,0.303c-0.418,0.033 -0.792,-0.276 -0.84,-0.693c-2.114,-18.728 -4.337,-37.456 -6.89,-56.135c-1.626,-12.088 -1.16,-31.981 -11.28,-40.805c-3.756,-3.285 -11.648,-3.448 -10.684,3.518c2.169,15.605 7.004,52.036 11.492,95.189c0.049,0.422 -0.26,0.813 -0.683,0.867c-3.973,0.482 -7.914,1.014 -11.811,1.594c-0.038,0.005 -0.076,0.01 -0.12,0.01c-0.385,0 -0.71,-0.287 -0.769,-0.666c-7.551,-57.457 -14.3,-105.223 -15.828,-115.999c-0.206,-1.507 -1.052,-2.851 -2.32,-3.686c-12.467,-7.659 -26.902,-11.518 -41.526,-11.117c-7.275,-0 -31.678,-0.748 -35.776,7.047c-0.103,0.2 -0.108,0.439 -0.027,0.65l48.243,130.379c0.032,0.087 0.048,0.184 0.048,0.276c0,0.331 -0.2,0.624 -0.509,0.738c-0.082,0.027 -0.163,0.043 -0.25,0.048l-4.835,0.19c-1.149,0.054 -2.217,-0.591 -2.71,-1.626l-2.938,-6.358l-0.07,-0.114Z" style="fill:#0c1073;fill-rule:nonzero;"/></g></g></g></g></g></svg>
