<?xml version="1.0" encoding="UTF-8"?>
<svg width="35px" height="40px" viewBox="0 0 35 40" xmlns="http://www.w3.org/2000/svg" xmlns:xlink="http://www.w3.org/1999/xlink" version="1.1">
 <!-- Generated by Pixelmator Pro 2.3 -->
 <path id="Path" d="M24.617 18.237 L22.223 17.705 24.085 20.365 24.085 28.611 30.471 23.291 30.471 14.247 27.544 15.311 Z" fill="#11b981" fill-opacity="1" stroke="none"/>
 <path id="Path-1" d="M9.717 18.237 L12.111 17.705 10.249 20.365 10.249 28.611 3.863 23.291 3.863 14.247 6.79 15.311 Z" fill="#11b981" fill-opacity="1" stroke="none"/>
 <path id="Path-2" d="M11.047 20.897 L13.176 17.705 14.506 18.503 19.828 18.503 21.158 17.705 23.287 20.897 23.287 32.867 21.69 35.261 19.828 37.123 14.506 37.123 12.643 35.261 11.047 32.867 Z" fill="#11b981" fill-opacity="1" stroke="none"/>
 <path id="Path-3" d="M24.085 33.665 L27.544 30.207 27.544 26.749 24.085 29.675 Z" fill="#11b981" fill-opacity="1" stroke="none"/>
 <path id="Path-4" d="M10.249 33.665 L6.79 30.207 6.79 26.749 10.249 29.675 Z" fill="#11b981" fill-opacity="1" stroke="none"/>
 <path id="Path-5" d="M20.626 2.277 L19.828 2.277 19.828 7.406 21.292 3.859 Z M19.313 8.653 L18.763 8.927 18.763 2.277 17.699 2.277 17.699 12.561 Z M17.699 14.879 L21.775 5.006 22.755 7.331 19.562 17.439 17.699 17.439 Z M16.635 12.6 L16.635 2.277 15.57 2.277 15.57 8.927 15.127 8.706 Z M14.506 7.101 L14.506 2.277 13.708 2.277 13.151 3.6 Z M12.657 4.773 L16.635 15.05 16.635 17.439 15.038 17.439 11.579 7.331 Z" fill="#334154" fill-opacity="1" stroke="none"/>
 <path id="Path-6" d="M3.597 13.183 L15.038 17.439 15.304 17.439 11.845 7.331 2 6.533 Z M31.003 13.183 L19.562 17.439 19.296 17.439 22.489 7.331 32.6 6.533 Z" fill="#11b981" fill-opacity="1" stroke="none"/>
 <path id="Path-7" d="M23.287 6.533 L28.875 6.001 25.15 2.277 21.424 2.277 Z" fill="#334154" fill-opacity="1" stroke="none"/>
 <path id="Path-8" d="M11.047 6.533 L5.459 6.001 9.184 2.277 12.91 2.277 Z" fill="#334154" fill-opacity="1" stroke="none"/>
 <path id="Path-9" d="M6.157 6.876 L11.905 7.319 15.354 17.445 15.001 17.445 11.286 16.074 Z" fill="#334154" fill-opacity="1" stroke="none"/>
 <path id="Path-10" d="M28.355 6.876 L22.429 7.319 19.157 17.445 19.599 17.436 23.049 16.162 Z" fill="#334154" fill-opacity="1" stroke="none"/>
 <path id="Path-11" d="M12.701 18.373 L13.143 17.666 14.647 18.373 19.953 18.373 21.103 17.666 21.634 18.373 17.167 25.979 Z" fill="#334154" fill-opacity="1" stroke="none"/>
 <path id="Path-12" d="M12.639 2.277 L17.142 13.91 21.945 2.277 Z" fill="#11b981" fill-opacity="1" stroke="none"/>
</svg>
